<svg viewBox="0 0 400 400" xmlns="http://www.w3.org/2000/svg"><path id="path" d="M 351.669 306.254 c -11.341 0 -20.564 -9.213 -20.564 -20.537 c 0 -11.322 9.223 -20.537 20.564 -20.537 c 11.34 0 20.569 9.215 20.569 20.537 c 0 11.324 -9.228 20.537 -20.57 20.537 Z m -101.667 0 c -51.782 0 -93.914 -42.058 -93.914 -93.758 c 0 -16.28 4.22 -31.581 11.563 -44.937 l 54.845 0 c -15.14 9.272 -25.27 25.944 -25.27 44.937 c 0 29.051 23.676 52.684 52.776 52.684 l 82.25 0 c -5.473 5.161 -8.91 12.449 -8.91 20.537 c 0 8.09 3.437 15.378 8.91 20.537 l -82.25 0 Z m -97.792 0 c -11.339 0 -20.57 -9.213 -20.57 -20.537 c 0 -11.322 9.231 -20.537 20.57 -20.537 l 10.919 0 c 11.163 18.28 27.954 32.769 47.948 41.074 l -58.867 0 Z m -24.448 -166.981 c 0 -11.32 9.228 -20.527 20.567 -20.527 c 11.338 0 20.566 9.208 20.566 20.527 c 0 11.324 -9.228 20.537 -20.566 20.537 c -11.339 0 -20.567 -9.213 -20.567 -20.537 Z m 167.252 73.223 c 0 24.78 -20.19 44.938 -45.012 44.938 c -24.822 0 -45.011 -20.158 -45.011 -44.938 c 0 -24.78 20.19 -44.937 45.011 -44.937 c 24.823 0 45.012 20.157 45.012 44.937 Z m -55.523 -93.75 l 6.63 0 l 3.881 0 l 3.884 0.098 c 49.987 2.042 90.026 43.26 90.026 93.652 c 0 15.648 -3.996 31.138 -11.573 44.938 l -54.812 0 c 15.137 -9.272 25.252 -25.944 25.252 -44.938 c 0 -29.053 -23.676 -52.686 -52.777 -52.686 l -3.88 0 l -6.631 0 l -71.742 0 c 5.472 -5.161 8.908 -12.446 8.908 -20.537 c 0 -8.085 -3.436 -15.368 -8.908 -20.527 l 71.742 0 Z m 108.302 0 c 11.34 0 20.571 9.208 20.571 20.527 c 0 11.324 -9.23 20.537 -20.571 20.537 l -10.924 0 c -11.164 -18.276 -27.952 -32.761 -47.941 -41.064 l 58.865 0 Z m 32.207 166.971 c 0 -15.593 -12.712 -28.283 -28.329 -28.283 l -10.586 0 c 6.943 -13.977 10.586 -29.383 10.586 -44.938 c 0 -16.13 -3.806 -31.382 -10.541 -44.937 l 6.663 0 c 15.619 0 28.331 -12.69 28.331 -28.286 c 0 -15.59 -12.712 -28.273 -28.331 -28.273 l -97.79 0 l -3.882 0 l -97.792 0 c -15.622 0 -28.329 12.683 -28.329 28.273 c 0 15.595 12.707 28.286 28.329 28.286 l 10.566 0 c -6.74 13.558 -10.566 28.801 -10.566 44.937 c 0 16.129 3.803 31.38 10.539 44.938 l -6.658 0 c -15.622 0 -28.329 12.69 -28.329 28.283 c 0 15.598 12.707 28.283 28.329 28.283 l 97.792 0 l 3.882 0 l 97.787 0 c 15.617 -0.002 28.329 -12.685 28.329 -28.283 Z" fill="red" fill-rule="evenodd"/></svg>