<svg id="bold" enable-background="new 0 0 24 24" fill='#efefef' height="512" viewBox="0 0 24 24" width="512" xmlns="http://www.w3.org/2000/svg"><path d="m18.751 7.499c.192 0 .384.073.53.22.293.293.293.768 0 1.061l-3.001 3c-.293.293-.768.293-1.061 0s-.293-.768 0-1.061l3.001-3.001c.147-.146.339-.219.531-.219z"/><path d="m13 12h-11c-1.105 0-2 .895-2 2v8c0 1.105.895 2 2 2h11c1.105 0 2-.895 2-2v-8c0-1.105-.895-2-2-2zm-.5 10h-10c-.276 0-.5-.224-.5-.5v-5.5h11v5.5c0 .276-.224.5-.5.5z"/><path d="m21 0h-18c-1.654 0-3 1.346-3 3v8.78c.532-.479 1.229-.78 2-.78v-6h20v14c0 .552-.449 1-1 1h-5v2h5c1.654 0 3-1.346 3-3v-16c0-1.654-1.346-3-3-3z"/><path d="m19.25 11c-.195 0-.387-.076-.53-.22l-2.5-2.5c-.214-.215-.279-.537-.163-.817s.39-.463.693-.463h2.5c.414 0 .75.336.75.75v2.5c0 .304-.183.577-.463.693-.093.038-.19.057-.287.057z"/></svg>