<svg xmlns="http://www.w3.org/2000/svg" xmlns:xlink="http://www.w3.org/1999/xlink" width="242.679" height="222.061" viewBox="0 0 242.679 222.061"><defs><linearGradient id="a" x1="0.5" x2="0.5" y2="1" gradientUnits="objectBoundingBox"><stop offset="0" stop-color="#ddcae8"/><stop offset="1" stop-color="#bc8bd5"/></linearGradient></defs><g transform="translate(-405.77 -1151.51)"><path d="M1095.071,1574.66h222.3a361.176,361.176,0,0,0-25.745-37.446c-14.711-18.543-8.3-43.416.408-52.717,18.389-19.633,60.2-93.24-27.787-104.708-64.155-8.363-64.974,46.172-105.836,58.9s-78.051,24.359-79.276,64.715S1095.071,1574.66,1095.071,1574.66Z" transform="translate(-669.751 -201.089)" fill="url(#a)"/><path d="M995.01,2384.33l.013,22.119h38.207l.84-22.119Z" transform="translate(-493.675 -1032.878)" fill="#35547c"/><path d="M1278.34,2384.33l-.011,22.119h-38.207l-.842-22.119Z" transform="translate(-698.329 -1032.878)" fill="#35547c"/><path d="M1164.556,2406.449V2384.33H1127.09v22.119Z" transform="translate(-604.334 -1032.878)" fill="#35547c"/><path d="M1495.648,1990.2c2.206,24.355-.036,42.228.5,86.04h-21.724l-3.093-82.047Z" transform="translate(-892.744 -702.669)" fill="#f5aaa3"/><path d="M1487.738,2044.622s13.393-1.226,22.55-7.266l-.241-5.316-22.316,3.041Z" transform="translate(-906.485 -737.724)" fill="#eb8f8b"/><path d="M1355.3,1637.85s42.541,10.7,50.248,64.693c0,0-20.819,9.027-41.684,5.144l4.694-18.061Z" transform="translate(-795.532 -407.464)" fill="#b879b1"/><path d="M505.12,1776.28l31.674,37.406-9.692,27.3s-24.074-33.471-34.892-59.341Z" transform="translate(-72.421 -523.443)" fill="#f5aaa3"/><path d="M459.52,1670.722s-11.121,6.283-13.951,4.011c-4.943-3.974-9.029-18.513-9.029-18.513s20.8-7.842,20.6-7.535S459.52,1670.722,459.52,1670.722Z" transform="translate(-25.779 -416.534)" fill="#f5aaa3"/><path d="M558.776,1679.737c-.2-1.121,4.124-13.2,5.607-17.73a2,2,0,0,0-1.583-2.517h0a2.308,2.308,0,0,0-2.572,1.054l-5.217,8.917Z" transform="translate(-125.036 -425.55)" fill="#f5aaa3"/><path d="M535.719,1602.657l-3.581-17.821a2.243,2.243,0,0,0-2.593-1.778h0a1.934,1.934,0,0,0-1.586,2.143l1.562,13.268Z" transform="translate(-102.36 -361.528)" fill="#f5aaa3"/><path d="M485.728,1590.237l-4.864-12.725a2.23,2.23,0,0,0-2.762-1.361h0a1.923,1.923,0,0,0-1.272,2.283l3.609,14.7Z" transform="translate(-59.491 -355.682)" fill="#f5aaa3"/><path d="M445.217,1614.952l-6.155-12.5a2.448,2.448,0,0,0-3.124-1.2h0a2.129,2.129,0,0,0-1.1,2.814l4.906,11.805Z" transform="translate(-24.206 -376.644)" fill="#f5aaa3"/><path d="M410.761,1642.827l-4.83-7.66a1.73,1.73,0,0,1,.845-2.311h0a1.974,1.974,0,0,1,2.412.7l6.351,8.81Z" transform="translate(0 -403.142)" fill="#f5aaa3"/><path d="M528.567,1695.757s-7.251-.76-8,8.906" transform="translate(-96.181 -455.968)" fill="none" stroke="#3b3538" stroke-linecap="round" stroke-linejoin="round" stroke-miterlimit="10" stroke-width="2"/><path d="M667.74,1820.064s5.957,20.617,17.829,17.876,30.374-28.1,30.374-28.1L711.8,1766.55l-33.32,41.01Z" transform="translate(-219.483 -515.291)" fill="#f5aaa3"/><path d="M797.69,1921.642s11.251,16.968,20.845,22.952l6.281-7.931-24.23-18.743Z" transform="translate(-328.357 -642.112)" fill="#eb8f8b"/><path d="M839.627,1632.08S806.6,1639.522,789,1677.908c0,0,10.634,16.022,27.681,23.143L828.1,1687.07l11.531-54.99Z" transform="translate(-321.076 -402.63)" fill="#b879b1"/><path d="M992.612,1616.53a82.732,82.732,0,0,0-21.012,15.394l2.546,112.2h81.3l-.263-111.624s-10.248-10.029-21.356-14.917C1024.4,1613.433,1001.784,1611.827,992.612,1616.53Z" transform="translate(-474.062 -387.2)" fill="#b879b1"/><path d="M1279.949,1851.616h0a11.308,11.308,0,0,1-11.309-11.307V1829h22.618v11.309A11.308,11.308,0,0,1,1279.949,1851.616Z" transform="translate(-722.927 -567.613)" fill="none" stroke="#3b3538" stroke-linecap="round" stroke-linejoin="round" stroke-miterlimit="10" stroke-width="2"/><line y1="36.705" x2="1.056" transform="translate(581.254 1263.935)" fill="none" stroke="#3b3538" stroke-linecap="round" stroke-linejoin="round" stroke-miterlimit="10" stroke-width="2"/><line x1="1.756" y1="31.817" transform="translate(497.032 1262.705)" fill="none" stroke="#3b3538" stroke-linecap="round" stroke-linejoin="round" stroke-miterlimit="10" stroke-width="2"/><path d="M1087.542,1225.52l-3.388-16.766c-.19-1.366-.72-3.472-.071-5.453,1.072-3.278,5.018-9.569,11.761-6.688l1.456,6.638s-7,1.414-9.81,10.574Z" transform="translate(-568.039 -37.172)" fill="#3b3538"/><path d="M1103.018,1221.75c-.123,2.2-2.068,11.843-8.9,15.354C1094.115,1237.1,1088.127,1224.262,1103.018,1221.75Z" transform="translate(-575.71 -58.849)" fill="#3b3538"/><path d="M1127.08,1465.231V1436.76h-26.246v28.471l-7.814,3.562s1.833,11.8,21.212,12.062,21.325-11.481,21.325-11.481Z" transform="translate(-575.79 -238.988)" fill="#f5aaa3"/><path d="M1158.22,1159.44s4.817-12.707,19.669-5.952c8.991,4.089,11.509,9.572,12.579,13.455a15.643,15.643,0,0,1,.4,4.531l-3.594,16.874L1173.251,1165l-13.575,1.075Z" transform="translate(-630.415)" fill="#3b3538"/><path d="M1329.337,1369.284a4.374,4.374,0,0,1,5.42-1.43c3.649,1.385,2,10.248-3.476,11.377a4.332,4.332,0,0,1-3.5-.915S1329.126,1371.769,1329.337,1369.284Z" transform="translate(-772.476 -180.937)" fill="#eb8f8b"/><path d="M1339.337,1388.606s-3.057-1.022-5.227,3.48" transform="translate(-777.779 -198.56)" fill="none" stroke="#3b3538" stroke-linecap="round" stroke-linejoin="round" stroke-miterlimit="10" stroke-width="3"/><path d="M1068.968,1369.284a4.37,4.37,0,0,0-5.419-1.43c-3.649,1.385-2,10.248,3.476,11.377a4.333,4.333,0,0,0,3.5-.915S1069.181,1371.769,1068.968,1369.284Z" transform="translate(-549.466 -180.937)" fill="#eb8f8b"/><path d="M1078.09,1388.606s3.056-1.022,5.226,3.48" transform="translate(-563.281 -198.56)" fill="none" stroke="#3b3538" stroke-linecap="round" stroke-linejoin="round" stroke-miterlimit="10" stroke-width="3"/><path d="M1142.586,1228.707c0,5.344-.522,16.523-3.807,23.158-3.085,6.229-8.187,9.582-14.874,9.781s-11.669-2.378-15.662-10.462-3.8-22.376-3.8-22.376,0-19.087,18.864-19.087C1143.175,1209.72,1142.586,1228.707,1142.586,1228.707Z" transform="translate(-585.358 -48.77)" fill="#f5aaa3"/><path d="M1142.41,1489.94s2.2,11.153,11.9,12.435c11.169,1.474,14.146-12.151,14.146-12.151s-4.937,6.186-12.743,6.2A17.077,17.077,0,0,1,1142.41,1489.94Z" transform="translate(-617.169 -283.543)" fill="#3b3538"/><path d="M1213.75,1375.65v4.418a1.452,1.452,0,0,0,.1.538,1.423,1.423,0,0,0,1.7.787l1.464-.389" transform="translate(-676.939 -187.789)" fill="none" stroke="#3b3538" stroke-linecap="round" stroke-linejoin="round" stroke-miterlimit="10" stroke-width="3"/><path d="M1161.655,1353.778a1.718,1.718,0,1,1-1.718-1.718A1.718,1.718,0,0,1,1161.655,1353.778Z" transform="translate(-630.415 -168.025)" fill="#3b3538"/><path d="M1260.935,1353.778a1.718,1.718,0,1,1-1.718-1.718A1.718,1.718,0,0,1,1260.935,1353.778Z" transform="translate(-713.594 -168.025)" fill="#3b3538"/><path d="M1240.98,1300.991l11.547,2.983s-.526-3.239-5.248-4.416S1240.98,1300.991,1240.98,1300.991Z" transform="translate(-699.753 -123.782)" fill="#3b3538"/><path d="M1137.1,1300.991l-11.546,2.983s.524-3.239,5.248-4.416S1137.1,1300.991,1137.1,1300.991Z" transform="translate(-603.044 -123.782)" fill="#3b3538"/><path d="M1182.58,1430.33s1.7,1.306,6.182,1.306a15.661,15.661,0,0,0,6.619-1.306" transform="translate(-650.824 -233.6)" fill="none" stroke="#3b3538" stroke-linecap="round" stroke-linejoin="round" stroke-miterlimit="10" stroke-width="3"/><path d="M1135.555,1328.038a7.3,7.3,0,1,1-7.3-7.3A7.3,7.3,0,0,1,1135.555,1328.038Z" transform="translate(-599.198 -141.784)" fill="none" stroke="#fefefe" stroke-miterlimit="10" stroke-width="3"/><path d="M1246.095,1328.038a7.3,7.3,0,1,1-7.3-7.3A7.3,7.3,0,0,1,1246.095,1328.038Z" transform="translate(-691.81 -141.784)" fill="none" stroke="#fefefe" stroke-miterlimit="10" stroke-width="3"/><path d="M1210.95,1362.035a2.375,2.375,0,0,1,3.333,0" transform="translate(-674.593 -175.781)" fill="none" stroke="#fefefe" stroke-miterlimit="10" stroke-width="3"/><line x1="2.446" y1="0.062" transform="translate(519.316 1186.193)" fill="none" stroke="#fefefe" stroke-miterlimit="10" stroke-width="3"/><line y1="0.044" x2="2.731" transform="translate(554.284 1186.21)" fill="none" stroke="#fefefe" stroke-miterlimit="10" stroke-width="3"/><path d="M1142.41,1202.581s3.5,9.956,19.318,9.65c10.746-.206,13.314,7.569,13.314,7.569s-1.87-17.383-2.361-17.219-16.351-4.231-16.351-4.231Z" transform="translate(-617.169 -39.244)" fill="#3b3538"/></g></svg>