<svg xmlns="http://www.w3.org/2000/svg" width="1921.057" height="777.272" viewBox="0 0 1921.057 777.272"><defs><style>.a{fill:#2a1b3d;}.a,.b,.c,.d{fill-rule:evenodd;}.b{fill:#44318d;}.c{fill:#8265a7;}.d{fill:#a4b3b6;}</style></defs><g transform="translate(1.057 -302.728)"><path class="a" d="M1712.57,846.489c-178.141,95.968-528.563,71.455-580.07,233.011h787v-327c-30.99,6.109-177,77.865-206.93,93.989Z"/><path class="b" d="M75.656,1080l1843.84-.5.5-474.9c-141.178,27.828-247.129,31.439-376.459,115.719-192.118,125.2-408.012,50.875-487.658,83.543C850.976,887.9,706.323,964.888,469.593,964.888c-402.891,0-277.97,79.384-393.941,115.112Zm1636.91-233.511c29.926-16.122,175.94-87.88,206.93-93.989v327h-787c51.507-161.556,401.931-137.046,580.07-233.011Z"/><path class="c" d="M1920,539V369c-18.7,3.685-10,3.737-40,12-219.012,60.322-186.484,127.755-310.549,157.654-41.256,9.942-99.828,15.735-190.725,15.735-298.856,0-302.2,136-432.228,136-269.794,0-172.2,18.7-372.344,102.629C184.759,956.307,300.726,741.8-1.057,819.242L0,1080H76c115.971-35.728-6.794-109.612,396.1-109.612,236.729,0,381.383-76.984,586.286-161.028,79.646-32.668,295.54,41.652,487.658-83.543C1675.267,641.605,1778.989,633.768,1920,606V539Z"/><path class="d" d="M1920,306c-.15.079-109.475-3.272-119.873-3.272-306.413,0-345.763,224-715.429,224-64.914,0-123.112,5.926-176.173,15.776C643.447,591.715,506.562,738.893,301.04,734.728c-101.729-2.061-210.9,1.577-302.1-.217v84.731c294.792-73.32,177.712,145.587,564.711-16.7C763.8,718.614,666.2,699.915,936,699.915c130.023,0,133.372-136,432.228-136,90.9,0,149.469-5.792,190.725-15.735,7.1-1.711,13.688-3.545,19.839-5.494,101.326-32.1,93.7-68.182,290.71-152.16L1920,369V306Z"/></g></svg>