<svg xmlns="http://www.w3.org/2000/svg" width="40" height="40" viewBox="0 0 40 40"><defs><style>.a{fill:#f5f5f5;}</style></defs><path class="a" d="M42.755,18.265a8.98,8.98,0,0,1,8.98,8.98v15.51a8.98,8.98,0,0,1-8.98,8.98H27.245a8.98,8.98,0,0,1-8.98-8.98V27.245a8.98,8.98,0,0,1,8.98-8.98h15.51m0-3.265H27.245A12.282,12.282,0,0,0,15,27.245v15.51A12.282,12.282,0,0,0,27.245,55h15.51A12.282,12.282,0,0,0,55,42.755V27.245A12.282,12.282,0,0,0,42.755,15Z" transform="translate(-15 -15)"/><path class="a" d="M86.91,32a2.5,2.5,0,1,0,2.5,2.5A2.5,2.5,0,0,0,86.91,32Z" transform="translate(-55.973 -25.437)"/><path class="a" d="M48.621,41.585a6.885,6.885,0,1,1-6.881,6.882,6.885,6.885,0,0,1,6.881-6.882m0-3.115A10,10,0,1,0,55.7,41.391a10,10,0,0,0-7.082-2.921Z" transform="translate(-28.64 -28.47)"/></svg>