<svg xmlns="http://www.w3.org/2000/svg" width="256.941" height="238.731" viewBox="0 0 256.941 238.731"><g transform="translate(-958.455 -1102.727)"><path d="M1094.979,1573.526H1315.99a359.067,359.067,0,0,0-25.6-37.229c-14.626-18.436-8.254-43.164.406-52.412,18.283-19.519,59.853-92.7-27.626-104.1-63.783-8.315-64.6,45.9-105.223,58.557s-77.6,24.218-78.817,64.341S1094.979,1573.526,1094.979,1573.526Z" transform="translate(-101.419 -232.235)" fill="#ddcae8"/><path d="M2042.192,2275.641s-9.277-36.451,8.394-54.565,35.346,3.535,21.208,12.812-15.464,16.347-13.255,17.231,29.161-18.557,34.463,2.652-22.424,6.406-32.254,10.6c-7.912,3.377-5.744,11.267-5.744,11.267Z" transform="translate(-882.982 -934.46)" fill="#32b6b2"/><path d="M2042.2,2474.694h12.812s-2.168-7.889,5.744-11.267a8.261,8.261,0,0,1,1.234-.4c-7.877-3.1-15.666-6.78-22.184-12.223A96.23,96.23,0,0,0,2042.2,2474.694Z" transform="translate(-887.563 -1133.513)" fill="#00a49d"/><path d="M2077.293,2399.154a28.923,28.923,0,0,1-1.539-9.468,37.815,37.815,0,0,1,13.038-27.947.332.332,0,0,0-.427-.508,38.473,38.473,0,0,0-13.275,28.455,29.6,29.6,0,0,0,1.577,9.683.331.331,0,1,0,.626-.215Z" transform="translate(-917.426 -1058.135)" fill="#1c1c1d"/><path d="M2113.6,2477.211c4.788-6.935,13.712-11.154,22.265-11.289a.331.331,0,0,0-.01-.662c-8.759.145-17.858,4.433-22.8,11.574a.332.332,0,0,0,.546.377Z" transform="translate(-944.562 -1145.672)" fill="#1c1c1d"/><path d="M1196.609,2205.617s11.275-44.3-10.2-66.311-42.954,4.3-25.773,15.571,18.794,19.865,16.109,20.94-35.439-22.55-41.88,3.222,27.25,7.786,39.2,12.887c9.613,4.1,6.981,13.691,6.981,13.691Z" transform="translate(-147.649 -864.435)" fill="#008b95"/><path d="M1400.041,2447.518h-15.569s2.633-9.587-6.981-13.691a9.883,9.883,0,0,0-1.5-.494c9.572-3.766,19.039-8.238,26.958-14.854A116.932,116.932,0,0,1,1400.041,2447.518Z" transform="translate(-342.526 -1106.337)" fill="#007876"/><path d="M1412.41,2356.337a35.888,35.888,0,0,0,1.913-11.744,46.68,46.68,0,0,0-16.107-34.525.332.332,0,1,0-.428.506,46.019,46.019,0,0,1,15.871,34.019,35.208,35.208,0,0,1-1.876,11.528.332.332,0,1,0,.627.217Z" transform="translate(-360.747 -1015.115)" fill="#1c1c1d"/><path d="M1308.008,2450.536c-5.991-8.66-17.03-13.861-27.651-14.036a.331.331,0,1,0-.011.662c10.417.166,21.283,5.3,27.116,13.75a.331.331,0,0,0,.546-.376Z" transform="translate(-263.763 -1121.489)" fill="#1c1c1d"/><path d="M1961.6,2172.694s-8.509-48.981,7.3-68.078,20.331-3.713,9.909,12.556S1962.34,2158.791,1961.6,2172.694Z" transform="translate(-821.247 -834.988)" fill="#008b95"/><path d="M1959.559,2347.44a181.346,181.346,0,0,0,2.042,36.87c.4-7.444,2.316-18.172,5.612-29.03C1964.563,2352.668,1961.954,2350.131,1959.559,2347.44Z" transform="translate(-822.817 -1046.604)" fill="#007876"/><path d="M1970.6,2268.6a96.709,96.709,0,0,1-.476-9.718,115.421,115.421,0,0,1,9.725-46.114.331.331,0,1,0-.6-.274,116.1,116.1,0,0,0-9.785,46.387,97.611,97.611,0,0,0,.479,9.783.332.332,0,1,0,.661-.065Z" transform="translate(-830.941 -932.97)" fill="#1c1c1d"/><path d="M1315.8,2041.1c.436-.6,1.326-20.875.5-21.7s-35.458,2.983-36.616-5.3,21.041-38.439,21.041-38.439l-10.107-25.681s-47.716,59.978-37.609,76.048S1314.475,2042.918,1315.8,2041.1Z" transform="translate(-239.104 -712.396)" fill="#f5a029"/><path d="M1435.217,2383.634c-.559-.557-16.451.988-27.121-.474a234.027,234.027,0,0,1-15.066,18.722c18.208,4.706,40.815,4.659,41.689,3.457.436-.6,1.326-20.875.5-21.7Z" transform="translate(-355.771 -1076.639)" fill="#f18830"/><path d="M1602.91,2398.961v17.9a.331.331,0,0,0,.662,0v-17.9a.331.331,0,0,0-.662,0Z" transform="translate(-530.193 -1089.647)" fill="#1c1c1d"/><path d="M2080.055,1531.271c.432,2.518,14.277,2.2,15.846,3.452s7.218,5.964,9.1,6.12,14.436-7.218,14.436-8-1.727-13.494-4.081-16.475-22.75,2.04-22.75,2.04l.785,4.706S2078.014,1519.346,2080.055,1531.271Z" transform="translate(-916.708 -347.008)" fill="#ea7e4c"/><path d="M2156.265,1484.617c1.052-4.337,20.084-10.041,23.537-7.06s2.667,15.532.785,17.886-11.3,6.12-14.28,4.393S2155.01,1489.795,2156.265,1484.617Z" transform="translate(-980.838 -314.476)" fill="#f49f73"/><path d="M2198.1,1521.732l-9.1-18.044a.331.331,0,0,0-.592.3l9.1,18.044a.331.331,0,1,0,.592-.3Z" transform="translate(-1007.946 -336.991)" fill="#1c1c1d"/><path d="M2234.012,1506.415l-7.53-19.456a.332.332,0,0,0-.619.239l7.532,19.456a.331.331,0,1,0,.617-.239Z" transform="translate(-1039.448 -322.899)" fill="#1c1c1d"/><path d="M2271.257,1500.1l-5.335-18.044a.331.331,0,1,0-.635.188l5.333,18.044a.332.332,0,0,0,.637-.188Z" transform="translate(-1072.603 -318.754)" fill="#1c1c1d"/><path d="M1968.3,1635.413c1.326.331,21.374,36.78,40.758,23.693s-2.983-39.93-2.652-41.256,20.049-10.438,21.042-9.61,23.03,47.552-1.657,67.931-55.005-7.291-55.005-7.291Z" transform="translate(-822.897 -425.011)" fill="#f5a029"/><path d="M1968.3,1779.25l2.486,33.467s18.033,16.454,37.608,14.635c-2.919-7.146-5.9-14.259-8.171-21.579C1984,1805.761,1969.423,1779.53,1968.3,1779.25Z" transform="translate(-822.897 -568.847)" fill="#f18830"/><path d="M2248.773,1684.331l16.238-6.462a.332.332,0,0,0-.245-.616l-16.238,6.462a.331.331,0,0,0,.245.616Z" transform="translate(-1058.348 -483.064)" fill="#1c1c1d"/><path d="M1686.19,2553.482H1734.4l-2.65-8.117-43.908-.995Z" transform="translate(-595.267 -1212.191)" fill="#0067ab"/><path d="M1494.529,1332.491s-15.077-24.024-11.764-32.97c2.426-6.549,12.757-4.971,13.586-6.462s5.467-14.912,19.055-16.236c6.952-.68,10.261,1.463,12.055,3.607,1.713,2.043,2.047,4.087,2.855,3.683,1.657-.828,8.946-5.965,11.267-3.479s-3.314,6.462-1.988,7.29c.482.3,1.468.076,2.647-.148,2.063-.393,4.719-.786,6.3,1.639,2.484,3.81-4.143,7.62-3.976,8.45s5.8.5,6.627,3.479-10.439,25.349-10.439,25.349Z" transform="translate(-426.948 -146.279)" fill="#252a3b"/><path d="M1549.066,1418.55c-19.577,12.784-46.959,13.111-66.252.135l-.048.113c-3.314,8.947,11.764,32.97,11.764,32.97l46.225-5.8s11.267-22.368,10.439-25.349A3.356,3.356,0,0,0,1549.066,1418.55Z" transform="translate(-426.948 -265.556)" fill="#20232b"/><path d="M1492.284,1550.1s-3.535-10.162-10.384-6.849-4.417,17.121,4.862,18.225S1492.727,1552.087,1492.284,1550.1Z" transform="translate(-426.774 -369.851)" fill="#ea7e4c"/><path d="M1505.051,1557.832a3.521,3.521,0,0,1,2.193.77,8.392,8.392,0,0,1,2.333,3.385,31.608,31.608,0,0,1,1.456,4.552l.32-.081,0-.331h-.014a6.88,6.88,0,0,0-2.566.377,1.856,1.856,0,0,0-.7.473,1.046,1.046,0,0,0-.266.692,1.436,1.436,0,0,0,.36.891,7.355,7.355,0,0,0,4.035,1.967.332.332,0,0,0,.142-.648,9.2,9.2,0,0,1-2.917-1.1,3.036,3.036,0,0,1-.742-.629.8.8,0,0,1-.215-.478.38.38,0,0,1,.1-.259,1.7,1.7,0,0,1,.855-.427,7.732,7.732,0,0,1,1.91-.193h.013a.334.334,0,0,0,.322-.414,25.286,25.286,0,0,0-2.187-6.067,7.357,7.357,0,0,0-1.838-2.233,4.2,4.2,0,0,0-2.6-.907.332.332,0,1,0,0,.664v0Z" transform="translate(-449.091 -382.114)" fill="#1c1c1d"/><path d="M1836,1528.372s.75-10.732,8.225-9.33,8.749,15.364.086,18.862S1836.094,1530.406,1836,1528.372Z" transform="translate(-720.95 -349.948)" fill="#ea7e4c"/><path d="M1865.309,1530.789a4.159,4.159,0,0,0-2.136,1.388,8.064,8.064,0,0,0-1.528,3.742,25.954,25.954,0,0,0-.325,4.5c0,.334,0,.664.01.987a.33.33,0,0,0,.417.315,7.59,7.59,0,0,1,1.95-.318,1.66,1.66,0,0,1,.885.183.379.379,0,0,1,.194.35,2.271,2.271,0,0,1-.783,1.335,9.469,9.469,0,0,1-2.392,1.69.332.332,0,0,0,.306.589,10.167,10.167,0,0,0,2.561-1.814,2.836,2.836,0,0,0,.971-1.8,1.047,1.047,0,0,0-.5-.906,2.287,2.287,0,0,0-1.246-.29,8.274,8.274,0,0,0-2.123.341l.086.32.333-.006c-.006-.32-.01-.646-.01-.976a20.462,20.462,0,0,1,.629-5.7,6.045,6.045,0,0,1,1.071-2.118,3.491,3.491,0,0,1,1.8-1.171.332.332,0,0,0-.175-.64Z" transform="translate(-742.516 -359.921)" fill="#1c1c1d"/><path d="M1673.185,1762.49s1.657,10.272.993,10.936-4.638,3.479-4.638,3.479,7.124,7.455,13.253,5.467,7.953-9.776,7.953-9.776-6.3-.662-6.3-1.491-1.988-10.6-1.988-10.6Z" transform="translate(-583.744 -553.082)" fill="#ea7e4c"/><path d="M1597.147,1422.654l-2.033-19.628a22.345,22.345,0,0,0-18.671-19.756c-1.034,3.186-2.263,5.195-4.348,6.029-2.64,1.585-6.034-1.221-8.175-5.042a22.344,22.344,0,0,0-15.469,23.6l2.031,19.629A22.339,22.339,0,0,0,1575,1447.407l2.222-.231A22.34,22.34,0,0,0,1597.147,1422.654Z" transform="translate(-482.449 -235.892)" fill="#f49f73"/><path d="M1573.107,1603.045a6.627,6.627,0,1,1,6.627-6.627A6.628,6.628,0,0,1,1573.107,1603.045Z" transform="translate(-499.583 -409.542)" fill="#f28f5e"/><path d="M1772.279,1591.245a6.627,6.627,0,1,1,6.627-6.627A6.628,6.628,0,0,1,1772.279,1591.245Z" transform="translate(-663.231 -399.62)" fill="#f28f5e"/><path d="M1613.166,1648.023l14.027,6.737a.331.331,0,1,0,.288-.6l-14.028-6.737a.331.331,0,1,0-.287.6Z" transform="translate(-537.705 -457.977)" fill="#1c1c1d"/><path d="M1716.866,1648.478l13.586-7.4a.331.331,0,1,0-.318-.581l-13.586,7.4a.332.332,0,0,0,.318.583Z" transform="translate(-622.678 -452.143)" fill="#1c1c1d"/><path d="M1691.747,1705.29l5.743-.331a.332.332,0,0,0-.038-.662l-5.742.331a.331.331,0,1,0,.038.662Z" transform="translate(-602.65 -505.823)" fill="#1c1c1d"/><path d="M1654.243,1553.493a1.2,1.2,0,1,1-2.4,0v-4.141a1.2,1.2,0,1,1,2.4,0Z" transform="translate(-570.351 -374.529)" fill="#20232b"/><path d="M1741.683,1553.493a1.2,1.2,0,1,1-2.4,0v-4.141a1.2,1.2,0,1,1,2.4,0Z" transform="translate(-642.276 -374.529)" fill="#20232b"/><path d="M1617.685,1494.3c-.272,1.456,2.188-.15,10.366-.01.937.016,1.113-4.593-.307-5.111S1618.563,1489.577,1617.685,1494.3Z" transform="translate(-541.762 -324.837)" fill="#20232b"/><path d="M1732.854,1492.211c.271,1.458-2.19-.15-10.366-.008-.937.016-1.113-4.595.307-5.112S1731.975,1487.489,1732.854,1492.211Z" transform="translate(-627.309 -323.08)" fill="#20232b"/><path d="M1686.733,1542.43l-1.631-1.631-.945-14.425a1.124,1.124,0,0,0-2.249,0l-.947,14.425-1.63,1.631a.568.568,0,0,0,0,.807l3.3,3.3a.571.571,0,0,0,.807,0l3.3-3.3A.571.571,0,0,0,1686.733,1542.43Z" transform="translate(-592.511 -355.274)" fill="#ea7e4c"/><path d="M1674.842,1635.642l3.4,3.312a.331.331,0,1,0,.463-.473l-3.4-3.315a.332.332,0,0,0-.463.476Z" transform="translate(-589.094 -447.617)" fill="#1c1c1d"/><path d="M1706.011,1641.828l3.148-3.066a.331.331,0,0,0-.462-.476l-3.148,3.065a.332.332,0,0,0,.462.476Z" transform="translate(-614.363 -450.242)" fill="#1c1c1d"/><path d="M1724.293,1352.436a8.319,8.319,0,0,1,5.408-4.542.331.331,0,1,0-.146-.646,8.971,8.971,0,0,0-5.859,4.9.331.331,0,1,0,.6.286Z" transform="translate(-629.188 -205.596)" fill="#1c1c1d"/><path d="M1877.332,1479.517a56.113,56.113,0,0,1,2.3-5.848.331.331,0,0,0-.6-.277,56.47,56.47,0,0,0-2.333,5.918.332.332,0,0,0,.63.207Z" transform="translate(-755.258 -311.508)" fill="#1c1c1d"/><path d="M1501.957,1495a62.925,62.925,0,0,1,2.391,7,.332.332,0,1,0,.638-.18,64.03,64.03,0,0,0-2.416-7.078.332.332,0,0,0-.613.253Z" transform="translate(-447.014 -329.452)" fill="#1c1c1d"/><path d="M1744.576,1291.058a15.628,15.628,0,0,1,2.675,4.138.332.332,0,1,0,.606-.269,16.309,16.309,0,0,0-2.79-4.313.331.331,0,1,0-.492.444Z" transform="translate(-646.499 -157.891)" fill="#fefefe"/><path d="M1814.184,1303.83a25.291,25.291,0,0,1,3.105-1.227.331.331,0,1,0-.2-.63,25.738,25.738,0,0,0-3.186,1.259.331.331,0,1,0,.283.6Z" transform="translate(-703.403 -167.52)" fill="#fefefe"/><path d="M1688.932,1637.128a3.159,3.159,0,0,0,1.816.637,2.664,2.664,0,0,0,2.114-1.116.331.331,0,1,0-.521-.409,2,2,0,0,1-1.593.863,2.523,2.523,0,0,1-1.434-.514.331.331,0,1,0-.382.54Z" transform="translate(-600.643 -448.492)" fill="#fefefe"/><path d="M1219.324,1521.04c.2-.29-8.571-5.37-10.952-6.74a10.395,10.395,0,1,0-1.479,3.978C1210.039,1519.066,1219.127,1521.317,1219.324,1521.04Z" transform="translate(-187.978 -336.036)" fill="#a86dda"/><path d="M1198.14,1564.476a9.407,9.407,0,0,0,2.364,6.7,8.681,8.681,0,0,0,6.422,2.318q.733,0,1.518-.075a.332.332,0,0,0-.064-.66c-.5.049-.989.073-1.455.073a8.032,8.032,0,0,1-5.951-2.12,8.767,8.767,0,0,1-2.173-6.244.331.331,0,1,0-.662.009Z" transform="translate(-196.992 -387.974)" fill="#1c1c1d"/><path d="M1181.4,1195.033a19.626,19.626,0,0,0,1.1-2.037,19.376,19.376,0,1,0-6.54,7.781c4.832,3.665,18.754,14.159,19.3,13.828.565-.347-10.762-15.466-13.853-19.572Z" transform="translate(-157.311 -52.775)" fill="#a86dda"/><path d="M1342.374,1376.23l15.462,12.591a.331.331,0,0,0,.419-.514l-15.463-12.591a.331.331,0,0,0-.418.514Z" transform="translate(-315.247 -229.477)" fill="#1c1c1d"/><path d="M1237.017,1379.448a22.41,22.41,0,0,0,5.037.576,20.911,20.911,0,0,0,9.772-2.373.331.331,0,0,0-.31-.586,20.239,20.239,0,0,1-9.462,2.3,21.75,21.75,0,0,1-4.889-.559.331.331,0,1,0-.148.645Z" transform="translate(-228.619 -230.642)" fill="#1c1c1d"/><path d="M1054.32,1687.666c.134-1.022-29.236-2.139-37.253-2.424a30.142,30.142,0,1,0,1.619,12.212C1027.867,1695.2,1054.191,1688.643,1054.32,1687.666Z" transform="translate(0 -472.828)" fill="#a86dda"/><path d="M1336.185,1816.959l28.749-6.608a.332.332,0,0,0-.15-.646l-28.748,6.608a.331.331,0,1,0,.148.646Z" transform="translate(-309.447 -594.447)" fill="#1c1c1d"/><path d="M1287.189,1884.6a22.253,22.253,0,0,0,5.15-13.89.332.332,0,0,0-.664-.006,21.579,21.579,0,0,1-4.994,13.47.332.332,0,0,0,.508.427Z" transform="translate(-269.834 -645.473)" fill="#1c1c1d"/><path d="M1909.338,1105.666a10.383,10.383,0,1,0-13.533,15.695c-.756,2.639-3.525,12.394-3.175,12.459.334.064,5.3-7.878,7.006-10.634a10.375,10.375,0,0,0,9.7-17.52Z" transform="translate(-766.173 0)" fill="#a86dda"/><path d="M1912.474,1231.36l3.489-6.22a.331.331,0,1,0-.578-.325l-3.489,6.22a.331.331,0,1,0,.578.325Z" transform="translate(-784.094 -102.514)" fill="#1c1c1d"/><path d="M1943.42,1203.239a10.392,10.392,0,0,0,1.681.142,8.079,8.079,0,0,0,6.949-3.8.331.331,0,1,0-.551-.369,7.4,7.4,0,0,1-6.4,3.5,9.685,9.685,0,0,1-1.574-.132.331.331,0,0,0-.107.654Z" transform="translate(-809.432 -81.008)" fill="#1c1c1d"/><path d="M2020.547,1201.709a19.37,19.37,0,0,0-36.664,12.51,19.918,19.918,0,0,0,.882,2.141c-3.5,3.761-16.344,17.619-15.817,18.022.5.387,15.442-8.6,20.63-11.741a19.368,19.368,0,0,0,30.969-20.931Z" transform="translate(-823.428 -72.197)" fill="#a86dda"/><path d="M2000.417,1401.063l13.7-8.755a.332.332,0,0,0-.358-.559l-13.7,8.757a.331.331,0,1,0,.356.557Z" transform="translate(-855.606 -242.978)" fill="#1c1c1d"/><path d="M2108.04,1393.162a17.325,17.325,0,0,0,15.2,3.094.331.331,0,0,0-.172-.64,16.66,16.66,0,0,1-14.624-2.979.331.331,0,1,0-.4.525Z" transform="translate(-940.286 -243.71)" fill="#1c1c1d"/><path d="M1515.59,1789.639c2.8-2,11.431,4.97,16.9,2.486s5.138-8.947,8.782-9.776,4.638,1.657,4.638,1.657,20.379-9.445,22.368-6.958,6.793,31.977,3.314,58.487-7.124,39.6-7.124,40.425,7.124,26.841,6.3,28.5-46.392,1.493-47.387-.662,1.822-25.846.995-28-34.463-65.28-31.646-70.745,21.539-11.267,22.036-11.433S1513.27,1791.3,1515.59,1789.639Z" transform="translate(-434.28 -566.645)" fill="#fdc619"/><path d="M1651.76,2253.465c3.638,7.127,6.25,12.149,6.475,12.73.828,2.155-3.584,26.8-2.59,28.958s49.593,1.545,50.422-.11-7.737-27.853-7.737-28.682c0-.653,2.268-8.945,4.934-25.431C1688.6,2250.784,1669.89,2254.094,1651.76,2253.465Z" transform="translate(-566.552 -957.047)" fill="#f5a029"/><path d="M1695.783,2148.4l32.639,11.1a.331.331,0,1,0,.213-.627l-32.639-11.1a.332.332,0,0,0-.213.628Z" transform="translate(-604.204 -878.7)" fill="#1c1c1d"/><path d="M1817.658,2054.717l10.439-17.067a.331.331,0,0,0-.565-.345l-10.439,17.067a.331.331,0,1,0,.565.345Z" transform="translate(-705.621 -785.697)" fill="#1c1c1d"/><path d="M1679.876,1861.833a23.427,23.427,0,0,0,6.207.845,19.873,19.873,0,0,0,9.316-2.2,15.63,15.63,0,0,0,6.736-6.873.331.331,0,1,0-.592-.3,14.967,14.967,0,0,1-6.456,6.584,19.18,19.18,0,0,1-9,2.126,22.772,22.772,0,0,1-6.031-.82.331.331,0,1,0-.177.638Z" transform="translate(-591.938 -630.961)" fill="#1c1c1d"/><path d="M1633,2380.859c1.46-1.23,24.418-.444,25.749,2s2.887,18.424,1.109,19.534-22.863,7.549-27.525,1.555S1628.777,2384.412,1633,2380.859Z" transform="translate(-550.029 -1074.222)" fill="#f49f73"/><path d="M1706.589,2495.387l17.317-1.332a.331.331,0,1,0-.051-.661l-17.317,1.332a.331.331,0,0,0,.051.661Z" transform="translate(-614.093 -1169.327)" fill="#1c1c1d"/><path d="M1699.581,2461.974h18.649a.332.332,0,0,0,0-.664h-18.649a.332.332,0,0,0,0,.664Z" transform="translate(-608.266 -1142.35)" fill="#1c1c1d"/><path d="M1699.56,2415.945l17.538,1.332a.331.331,0,0,0,.049-.66l-17.538-1.332a.331.331,0,0,0-.049.661Z" transform="translate(-608.346 -1103.649)" fill="#1c1c1d"/></g></svg>