<svg xmlns="http://www.w3.org/2000/svg" width="139.183" height="40" viewBox="0 0 139.183 40"><defs><style>.a{font-size:30px;font-family:SegoeUI-Bold, Segoe UI;font-weight:700;letter-spacing:0.05em;}.b{fill:#2a1b3d;fill-rule:evenodd;}</style></defs><g transform="translate(-179.817 -21)"><text class="a" transform="translate(228 53)"><tspan x="0" y="0">Aryan</tspan></text><path class="b" d="M155.967,141.314a3.188,3.188,0,1,1,3.193-3.188,3.194,3.194,0,0,1-3.193,3.188Zm-15.784,0a14.585,14.585,0,0,1-14.58-14.556,14.437,14.437,0,0,1,1.8-6.977h8.515a8.174,8.174,0,0,0,4.27,15.156h12.77a4.366,4.366,0,0,0,0,6.377Zm-15.183,0a3.188,3.188,0,1,1,0-6.377h1.7a15.874,15.874,0,0,0,7.444,6.377Zm-3.8-25.924a3.193,3.193,0,1,1,3.193,3.188A3.194,3.194,0,0,1,121.205,115.389Zm25.966,11.368a6.988,6.988,0,1,1-6.988-6.977A6.99,6.99,0,0,1,147.171,126.758Zm-8.62-14.555h1.632l.6.015a14.528,14.528,0,0,1,12.18,21.517h-8.51a8.176,8.176,0,0,0-4.273-15.156h-12.77a4.365,4.365,0,0,0,0-6.375Zm16.814,0a3.188,3.188,0,1,1,0,6.375h-1.7a15.874,15.874,0,0,0-7.443-6.375Zm5,25.923a4.4,4.4,0,0,0-4.4-4.391h-1.644a15.66,15.66,0,0,0,.007-13.953h1.034a4.39,4.39,0,1,0,0-8.781H124.4a4.39,4.39,0,1,0,0,8.781h1.64a15.674,15.674,0,0,0,0,13.953H125a4.391,4.391,0,1,0,0,8.782h30.967a4.4,4.4,0,0,0,4.4-4.391Z" transform="translate(59.817 -85.94)"/></g></svg>